<svg width="29" height="28" viewBox="0 0 29 28" fill="none" xmlns="http://www.w3.org/2000/svg">
<path d="M26.1021 1.9622C24.4912 0.351336 22.6534 -0.422629 21.9973 0.233504L17.5605 4.67022L23.394 10.5037L27.8307 6.06698C28.4869 5.41085 27.7129 3.57311 26.1021 1.9622Z" fill="#FF6E83"/>
<path d="M23.291 4.77487C21.4531 2.93696 19.3564 2.05395 18.6078 2.80254L14.0645 7.3459L20.72 14.0015L25.2634 9.45815C26.012 8.70956 25.1289 6.61278 23.291 4.77487Z" fill="#BFBCAF"/>
<path d="M5.77058 25.3126L1.76892 27.0531C1.47771 27.1797 1.13892 27.0463 1.0123 26.7551C0.980993 26.6827 0.964844 26.6046 0.964844 26.5258C0.964844 26.4469 0.980993 26.3688 1.0123 26.2964L2.75282 22.2948C3.25802 21.1333 4.60913 20.6012 5.77064 21.1064C6.93214 21.6116 7.46417 22.9627 6.95898 24.1242C6.71862 24.6767 6.28222 25.0888 5.77058 25.3126Z" fill="#2B2622"/>
<path d="M22.6388 12.0695C22.6431 12.0634 22.6474 12.0573 22.6514 12.051C23.2286 11.2239 22.3454 9.23272 20.5896 7.47696C18.8338 5.72114 16.8426 4.83795 16.0155 5.41522C16.0094 5.4192 16.0033 5.42348 15.9973 5.4277C15.9899 5.43321 15.9821 5.43842 15.9749 5.44417C15.9545 5.45987 15.9345 5.47645 15.9158 5.49514L15.9064 5.50458H15.9064V5.50463L5.3572 16.0538C5.3572 16.0538 2.37021 23.4455 3.49567 24.5709C4.62114 25.6963 12.0128 22.7094 12.0128 22.7094L22.5714 12.1508C22.5901 12.1321 22.6067 12.1122 22.6224 12.0917C22.6281 12.0845 22.6333 12.0769 22.6388 12.0695Z" fill="#FFD469"/>
<path d="M5.35654 16.0537L5.12205 17.515C5.08754 17.73 5.27369 17.9155 5.4885 17.8805L6.53574 17.7095C6.74258 17.6757 6.92521 17.8471 6.90465 18.0556L6.78805 19.2377C6.7676 19.4452 6.94842 19.6163 7.15443 19.5843L8.21281 19.4201C8.4292 19.3865 8.61436 19.576 8.5758 19.7915L8.39475 20.8041C8.35748 21.0127 8.53004 21.199 8.7408 21.1777L9.93201 21.0576C10.133 21.0373 10.302 21.2066 10.2814 21.4075L10.1586 22.6092C10.1374 22.816 10.3166 22.9875 10.5222 22.9573L12.0381 22.7353L3.49514 26.31C4.17664 25.6285 2.41203 23.8638 1.73047 24.5454L5.35654 16.0537Z" fill="#E5AA6E"/>
<path d="M7.54821 16.4392C7.46953 16.4392 7.39261 16.4158 7.32719 16.3721C7.26177 16.3284 7.21078 16.2663 7.18067 16.1936C7.15056 16.1209 7.14269 16.0409 7.15803 15.9637C7.17338 15.8865 7.21127 15.8157 7.2669 15.76L16.0768 6.95009C16.1515 6.87566 16.2526 6.8339 16.358 6.83398C16.4635 6.83407 16.5645 6.87598 16.6391 6.95053C16.7136 7.02507 16.7555 7.12615 16.7556 7.23157C16.7556 7.33699 16.7139 7.43812 16.6394 7.51277L7.82952 16.3226C7.79263 16.3596 7.74878 16.389 7.7005 16.409C7.65222 16.429 7.60047 16.4392 7.54821 16.4392ZM10.0801 18.5732L18.89 9.76329C18.927 9.72637 18.9564 9.68251 18.9765 9.63422C18.9965 9.58593 19.0069 9.53415 19.0069 9.48186C19.007 9.42956 18.9967 9.37777 18.9767 9.32945C18.9567 9.28113 18.9274 9.23722 18.8904 9.20024C18.8534 9.16326 18.8095 9.13393 18.7612 9.11393C18.7129 9.09394 18.6611 9.08366 18.6088 9.0837C18.5565 9.08373 18.5047 9.09408 18.4564 9.11414C18.4081 9.1342 18.3643 9.16359 18.3274 9.20062L9.51743 18.0106C9.443 18.0852 9.40124 18.1864 9.40133 18.2918C9.40141 18.3972 9.44332 18.4983 9.51787 18.5728C9.59241 18.6474 9.69349 18.6893 9.79891 18.6894C9.90433 18.6894 10.0055 18.6477 10.0801 18.5732ZM12.3307 20.8237L21.1406 12.0139C21.1776 11.977 21.207 11.9331 21.227 11.8848C21.2471 11.8365 21.2575 11.7847 21.2575 11.7324C21.2575 11.6801 21.2473 11.6284 21.2273 11.58C21.2073 11.5317 21.178 11.4878 21.141 11.4508C21.104 11.4138 21.0601 11.3845 21.0118 11.3645C20.9635 11.3445 20.9117 11.3342 20.8594 11.3343C20.8071 11.3343 20.7553 11.3447 20.707 11.3647C20.6587 11.3848 20.6149 11.4142 20.5779 11.4512L11.768 20.2611C11.6936 20.3358 11.6518 20.4369 11.6519 20.5423C11.652 20.6478 11.6939 20.7488 11.7685 20.8234C11.843 20.8979 11.9441 20.9398 12.0495 20.9399C12.1549 20.9399 12.256 20.8982 12.3307 20.8237Z" fill="#FFB636"/>
</svg>
