<svg width="40" height="40" viewBox="0 0 40 40" fill="none" xmlns="http://www.w3.org/2000/svg">
<path d="M25.9461 19.9998C25.9461 21.5911 25.314 23.1172 24.1887 24.2424C23.0635 25.3677 21.5374 25.9998 19.9461 25.9998C18.3548 25.9998 16.8287 25.3677 15.7035 24.2424C14.5782 23.1172 13.9461 21.5911 13.9461 19.9998C13.9461 19.6578 13.9821 19.3238 14.0441 18.9998H11.9461V26.9938C11.9461 27.5498 12.3961 27.9998 12.9521 27.9998H26.9421C27.2086 27.9993 27.4639 27.8931 27.6522 27.7044C27.8404 27.5158 27.9461 27.2603 27.9461 26.9938V18.9998H25.8481C25.9101 19.3238 25.9461 19.6578 25.9461 19.9998ZM19.9461 23.9998C20.4715 23.9997 20.9918 23.8961 21.4771 23.6949C21.9625 23.4937 22.4035 23.1989 22.7749 22.8272C23.1464 22.4556 23.441 22.0145 23.6419 21.529C23.8429 21.0435 23.9462 20.5232 23.9461 19.9978C23.946 19.4724 23.8423 18.9521 23.6412 18.4668C23.44 17.9814 23.1451 17.5404 22.7735 17.169C22.4019 16.7975 21.9608 16.5029 21.4753 16.302C20.9898 16.101 20.4695 15.9977 19.9441 15.9978C18.883 15.9981 17.8654 16.4199 17.1153 17.1704C16.3651 17.9209 15.9438 18.9387 15.9441 19.9998C15.9444 21.0609 16.3661 22.0785 17.1167 22.8286C17.8672 23.5788 18.885 24.0001 19.9461 23.9998ZM24.7461 15.7998H27.1441C27.3034 15.7998 27.4562 15.7367 27.5691 15.6242C27.6819 15.5117 27.7456 15.3591 27.7461 15.1998V12.8018C27.7461 12.6421 27.6827 12.489 27.5698 12.3761C27.4569 12.2632 27.3038 12.1998 27.1441 12.1998H24.7461C24.5864 12.1998 24.4333 12.2632 24.3204 12.3761C24.2075 12.489 24.1441 12.6421 24.1441 12.8018V15.1998C24.1461 15.5298 24.4161 15.7998 24.7461 15.7998ZM19.9461 0.799805C14.8539 0.799805 9.97034 2.82266 6.36964 6.42335C2.76894 10.0241 0.746094 14.9076 0.746094 19.9998C0.746094 25.092 2.76894 29.9756 6.36964 33.5763C9.97034 37.177 14.8539 39.1998 19.9461 39.1998C22.4675 39.1998 24.9642 38.7032 27.2936 37.7383C29.6231 36.7734 31.7397 35.3591 33.5225 33.5763C35.3054 31.7934 36.7197 29.6768 37.6846 27.3473C38.6495 25.0179 39.1461 22.5212 39.1461 19.9998C39.1461 17.4784 38.6495 14.9817 37.6846 12.6523C36.7197 10.3228 35.3054 8.20624 33.5225 6.42335C31.7397 4.64047 29.6231 3.22621 27.2936 2.26132C24.9642 1.29643 22.4675 0.799805 19.9461 0.799805ZM29.9461 27.7778C29.9461 28.9998 28.9461 29.9998 27.7241 29.9998H12.1681C10.9461 29.9998 9.94609 28.9998 9.94609 27.7778V12.2218C9.94609 10.9998 10.9461 9.9998 12.1681 9.9998H27.7241C28.9461 9.9998 29.9461 10.9998 29.9461 12.2218V27.7778Z" fill="#005484"/>
</svg>
