<svg width="26" height="20" viewBox="0 0 26 20" fill="none" xmlns="http://www.w3.org/2000/svg">
<path d="M3.44531 20C2.75781 20 2.16948 19.7554 1.68031 19.2663C1.19031 18.7763 0.945312 18.1875 0.945312 17.5V2.5C0.945312 1.8125 1.19031 1.22417 1.68031 0.735C2.16948 0.245 2.75781 0 3.44531 0H23.4453C24.1328 0 24.7216 0.245 25.2116 0.735C25.7007 1.22417 25.9453 1.8125 25.9453 2.5V17.5C25.9453 18.1875 25.7007 18.7763 25.2116 19.2663C24.7216 19.7554 24.1328 20 23.4453 20H3.44531ZM23.4453 5L14.1016 10.8438C13.9974 10.9062 13.8878 10.9529 13.7728 10.9837C13.6586 11.0154 13.5495 11.0312 13.4453 11.0312C13.3411 11.0312 13.232 11.0154 13.1178 10.9837C13.0028 10.9529 12.8932 10.9062 12.7891 10.8438L3.44531 5V17.5H23.4453V5ZM13.4453 8.75L23.4453 2.5H3.44531L13.4453 8.75ZM3.44531 5.3125V3.46875V3.5V3.48375V5.3125Z" fill="#447288"/>
</svg>
