<svg width="20" height="20" viewBox="0 0 20 20" fill="none" xmlns="http://www.w3.org/2000/svg">
<path d="M17.7285 9.9723C17.7285 7.81163 16.9758 5.97858 15.4704 4.47313C13.9657 2.96842 12.133 2.21607 9.9723 2.21607V0C11.3573 0 12.6548 0.262973 13.8648 0.78892C15.0741 1.3156 16.1267 2.02696 17.0227 2.92299C17.918 3.81828 18.629 4.87091 19.1557 6.08089C19.6816 7.29012 19.9446 8.58726 19.9446 9.9723H17.7285ZM13.2964 9.9723C13.2964 9.04894 12.9732 8.26408 12.3269 7.61773C11.6805 6.97138 10.8957 6.6482 9.9723 6.6482V4.43213C11.5051 4.43213 12.8118 4.97211 13.8925 6.05208C14.9725 7.13278 15.5125 8.43952 15.5125 9.9723H13.2964ZM18.7812 20C16.3989 20 14.0768 19.4737 11.815 18.4211C9.55235 17.3684 7.54866 15.9649 5.80388 14.2105C4.05836 12.4561 2.65485 10.4476 1.59335 8.18504C0.531117 5.92318 0 3.60111 0 1.21884V0.637119C0 0.43398 0.0184672 0.240074 0.0554016 0.0554016H6.5374L7.56233 5.62327L4.40443 8.80886C5.18006 10.1385 6.15439 11.385 7.32742 12.5485C8.49972 13.7119 9.78763 14.7184 11.1911 15.5679L14.4044 12.3546L19.9446 13.4626V19.9446C19.7599 19.9631 19.566 19.9771 19.3629 19.9867C19.1597 19.9956 18.9658 20 18.7812 20Z" fill="#447288"/>
</svg>
