<svg width="40" height="40" viewBox="0 0 40 40" fill="none" xmlns="http://www.w3.org/2000/svg">
<path d="M19.9461 0.799805C9.34209 0.799805 0.746094 9.39581 0.746094 19.9998C0.746094 30.6038 9.34209 39.1998 19.9461 39.1998C30.5501 39.1998 39.1461 30.6038 39.1461 19.9998C39.1461 9.39581 30.5501 0.799805 19.9461 0.799805ZM27.3301 22.4618C27.3301 22.4618 29.0281 24.1378 29.4461 24.9158C29.4581 24.9318 29.4641 24.9478 29.4681 24.9558C29.6381 25.2418 29.6781 25.4638 29.5941 25.6298C29.4541 25.9058 28.9741 26.0418 28.8101 26.0538H25.8101C25.6021 26.0538 25.1661 25.9998 24.6381 25.6358C24.2321 25.3518 23.8321 24.8858 23.4421 24.4318C22.8601 23.7558 22.3561 23.1718 21.8481 23.1718C21.7836 23.1717 21.7194 23.1818 21.6581 23.2018C21.2741 23.3258 20.7821 23.8738 20.7821 25.3338C20.7821 25.7898 20.4221 26.0518 20.1681 26.0518H18.7941C18.3261 26.0518 15.8881 25.8878 13.7281 23.6098C11.0841 20.8198 8.70409 15.2238 8.68409 15.1718C8.53409 14.8098 8.84409 14.6158 9.18209 14.6158H12.2121C12.6161 14.6158 12.7481 14.8618 12.8401 15.0798C12.9481 15.3338 13.3441 16.3438 13.9941 17.4798C15.0481 19.3318 15.6941 20.0838 16.2121 20.0838C16.3092 20.0827 16.4046 20.058 16.4901 20.0118C17.1661 19.6358 17.0401 17.2258 17.0101 16.7258C17.0101 16.6318 17.0081 15.6478 16.6621 15.1758C16.4141 14.8338 15.9921 14.7038 15.7361 14.6558C15.8397 14.5128 15.9762 14.3969 16.1341 14.3178C16.5981 14.0858 17.4341 14.0518 18.2641 14.0518H18.7261C19.6261 14.0638 19.8581 14.1218 20.1841 14.2038C20.8441 14.3618 20.8581 14.7878 20.8001 16.2458C20.7821 16.6598 20.7641 17.1278 20.7641 17.6798C20.7641 17.7998 20.7581 17.9278 20.7581 18.0638C20.7381 18.8058 20.7141 19.6478 21.2381 19.9938C21.3064 20.0367 21.3854 20.0595 21.4661 20.0598C21.6481 20.0598 22.1961 20.0598 23.6801 17.5138C24.1378 16.6943 24.5355 15.8428 24.8701 14.9658C24.9001 14.9138 24.9881 14.7538 25.0921 14.6918C25.1688 14.6527 25.254 14.6328 25.3401 14.6338H28.9021C29.2901 14.6338 29.5561 14.6918 29.6061 14.8418C29.6941 15.0798 29.5901 15.8058 27.9641 18.0078L27.2381 18.9658C25.7641 20.8978 25.7641 20.9958 27.3301 22.4618Z" fill="#005484"/>
</svg>
