<svg width="61" height="60" viewBox="0 0 61 60" fill="none" xmlns="http://www.w3.org/2000/svg">
<path d="M21.9 60L20.7 50.4C20.05 50.15 19.437 49.85 18.861 49.5C18.285 49.15 17.723 48.775 17.175 48.375L8.25 52.125L0 37.875L7.725 32.025C7.675 31.675 7.65 31.338 7.65 31.014V28.989C7.65 28.663 7.675 28.325 7.725 27.975L0 22.125L8.25 7.875L17.175 11.625C17.725 11.225 18.3 10.85 18.9 10.5C19.5 10.15 20.1 9.85 20.7 9.6L21.9 0H38.4L39.6 9.6C40.25 9.85 40.863 10.15 41.439 10.5C42.015 10.85 42.577 11.225 43.125 11.625L52.05 7.875L60.3 22.125L52.575 27.975C52.625 28.325 52.65 28.663 52.65 28.989V31.014C52.65 31.338 52.6 31.675 52.5 32.025L60.225 37.875L51.975 52.125L43.125 48.375C42.575 48.775 42 49.15 41.4 49.5C40.8 49.85 40.2 50.15 39.6 50.4L38.4 60H21.9ZM30.3 40.5C33.2 40.5 35.675 39.475 37.725 37.425C39.775 35.375 40.8 32.9 40.8 30C40.8 27.1 39.775 24.625 37.725 22.575C35.675 20.525 33.2 19.5 30.3 19.5C27.35 19.5 24.862 20.525 22.836 22.575C20.81 24.625 19.798 27.1 19.8 30C19.8 32.9 20.812 35.375 22.836 37.425C24.86 39.475 27.348 40.5 30.3 40.5Z" fill="#005484"/>
</svg>
