<svg width="60" height="60" viewBox="0 0 60 60" fill="none" xmlns="http://www.w3.org/2000/svg">
<path d="M28.0113 0L26.0814 4.40637C25.0824 4.46733 24.0884 4.59313 23.1057 4.78297L20.1535 0.970797L16.9716 2.05267L16.9557 6.90285C15.6078 7.5957 14.3161 8.43335 13.0959 9.411L8.59883 7.38622L6.29648 9.83515L8.5987 14.2018C7.8642 15.2489 7.21871 16.3557 6.66903 17.5106L1.73161 17.6453L0.729112 20.8508L4.71552 23.7873C4.52468 24.9767 4.43148 26.1785 4.42615 27.3814L0 29.6241L0.463588 32.9527L5.32176 33.9037C5.61218 34.9206 5.9723 35.9162 6.39957 36.8836L3.19795 40.8582L4.98497 43.7031L9.96195 42.5382C10.2769 42.9088 10.6033 43.2695 10.9406 43.6198C11.6452 44.3486 12.3957 45.0315 13.1875 45.6645L12.2207 50.6494L15.1293 52.3296L18.9293 49.0208C20.0166 49.4578 21.1361 49.8102 22.2777 50.0748L23.5181 54.9447L26.8663 55.2182L28.8793 50.6255C30.2703 50.5418 31.6568 50.3338 33.0201 49.9993L36.2181 53.7045L39.3365 52.4562L39.2452 50.5779L31.966 45.0582C29.8469 45.594 27.6494 45.7374 25.4911 45.4939C21.4647 45.04 17.5952 43.2216 14.5585 40.0812C7.61764 32.9025 7.81608 21.4832 14.9945 14.5425C18.4714 11.1806 22.9437 9.47516 27.4211 9.42685C32.1876 9.37537 36.9584 11.2016 40.5372 14.903C46.3619 20.9277 47.1558 29.9906 43.0177 36.8519L47.0716 39.9268C47.5756 39.1364 48.0308 38.3159 48.4347 37.47L53.3363 37.3352L54.3387 34.1297L50.3804 31.2132C50.5713 30.014 50.6679 28.8017 50.6695 27.5874L55.068 25.3526L54.6045 22.024L49.7505 21.073C49.3421 19.6669 48.8008 18.3029 48.1338 16.9995L51.0262 12.9933L49.0924 10.2471L44.3298 11.63C44.2699 11.5666 44.2118 11.5023 44.1512 11.4398C43.4016 10.6642 42.5992 9.94119 41.75 9.27608L42.6614 4.56855L39.7524 2.88855L36.1386 6.03502C34.9687 5.5642 33.7671 5.19774 32.5484 4.9255L31.3637 0.273385L28.0113 0ZM20.637 19.4641C19.3254 19.4791 18.0253 19.8012 16.833 20.3872L22.567 24.7383C24.3011 26.054 24.793 28.5544 23.4622 30.3096C22.131 32.0658 19.5749 32.3298 17.8157 30.9954L12.0858 26.6483C11.499 29.7921 12.6101 33.1232 15.3311 35.1877C17.7714 37.0386 20.9033 37.3852 23.6012 36.4162L24.2073 36.1981L24.7183 36.5865L41.8607 49.5918L42.3717 49.98L42.3281 50.6221C42.1205 53.4814 43.2905 56.4055 45.7319 58.2577C48.4531 60.322 51.9636 60.4932 54.8338 59.0819L49.1041 54.7351C47.3448 53.4004 46.9127 50.8669 48.2444 49.1122C49.5758 47.3573 52.1165 47.1588 53.8512 48.4742L59.5811 52.8213C60.1664 49.6786 59.06 46.3459 56.3397 44.2819C53.8908 42.4233 50.7836 42.055 48.1016 43.0097L47.4993 43.2238L46.9883 42.8354L29.8459 29.8303L29.3349 29.4419L29.3785 28.8041C29.5751 25.9654 28.3831 23.0734 25.935 21.2156C24.3444 20.009 22.4831 19.4432 20.6372 19.4642L20.637 19.4641ZM26.1609 30.908L46.9406 46.6751L45.51 48.5652L24.7264 32.7942L26.1609 30.908Z" fill="#005484"/>
</svg>
