<svg width="69" height="60" viewBox="0 0 69 60" fill="none" xmlns="http://www.w3.org/2000/svg">
<path d="M9.83203 29.4961H24.5801V34.4121H9.83203V29.4961ZM9.83203 19.6641H34.4121V24.5801H9.83203V19.6641ZM9.83203 9.83203H34.4121V14.748H9.83203V9.83203Z" fill="#005484"/>
<path d="M29.4961 54.0762H4.91602V4.91602H63.9082V29.4961H68.8242V4.91602C68.8242 3.61221 68.3063 2.3618 67.3844 1.43987C66.4624 0.517936 65.212 0 63.9082 0H4.91602C3.61221 0 2.3618 0.517936 1.43987 1.43987C0.517936 2.3618 0 3.61221 0 4.91602V54.0762C0 55.38 0.517936 56.6304 1.43987 57.5523C2.3618 58.4743 3.61221 58.9922 4.91602 58.9922H29.4961V54.0762Z" fill="#005484"/>
<path d="M49.1602 53.0684L42.7939 46.7022L39.3281 50.1679L49.1602 60L68.8242 40.3359L65.3584 36.8701L49.1602 53.0684Z" fill="#005484"/>
</svg>
