<svg width="84" height="60" viewBox="0 0 84 60" fill="none" xmlns="http://www.w3.org/2000/svg">
<path d="M82.7949 9.59735H78.4262C78.4262 9.59735 76.4544 5.22862 75.7678 3.68523C74.4795 1.11502 73.796 0 70.3691 0H49.8829C46.7962 0 45.6811 1.11502 44.4842 3.68523L43.3692 5.82393C45.1677 6.34049 47.1426 7.71064 47.1426 7.71064C47.1426 7.71064 47.8261 6.34049 48.1663 5.73889C48.4246 5.22232 48.8498 4.7971 49.5365 4.7971H70.621C71.3045 4.7971 71.7361 5.22547 72.0794 5.73889C72.4195 6.68067 73.6196 11.9943 73.6196 11.9943H49.6215L53.0485 21.5948H55.2753C57.5873 21.5948 58.3621 22.2783 58.3621 24.5966V31.1985H67.7043V35.9956H55.962V38.3989H74.6464V42.0022C74.6464 42.6857 75.163 43.2023 75.8465 43.2023H80.4735C81.157 43.2023 81.6736 42.6857 81.6736 42.0022V16.804L80.7318 14.4008H82.7886C83.4721 14.4008 83.9887 13.8842 83.9887 13.2007V10.7974C83.9887 10.1139 83.4721 9.59735 82.7886 9.59735H82.7949ZM79.368 23.995L76.9647 26.3982H72.3377V21.6011L79.368 18.9427V23.995ZM55.9683 25.195C55.9683 24.5115 55.4517 23.995 54.8533 23.995H50.3963L46.5379 13.2794C45.2496 10.536 44.2259 9.59421 41.1392 9.59421H14.826C11.8242 9.59421 10.7974 10.536 9.42727 13.2794L5.5688 23.995H1.20006C0.516563 23.995 0 24.5115 0 25.195V27.5983C0 28.2818 0.516563 28.7984 1.20006 28.7984H3.33876L2.31508 31.2016V58.7999C2.31508 59.4834 2.83164 60 3.51515 60H8.14216C8.82566 60 9.34222 59.4834 9.34222 58.7999V55.1966H46.708V58.7999C46.708 59.4834 47.2245 60 47.823 60H52.5382C53.1367 60 53.6532 59.4834 53.6532 58.7999V31.2016L52.7114 28.7984H54.8501C55.4486 28.7984 55.9651 28.2818 55.9651 27.5983L55.9683 25.195ZM13.1125 15.3362C13.4527 14.8197 13.796 14.3945 14.5708 14.3945H41.4825C42.166 14.3945 42.5975 14.8228 42.8526 15.3362C43.281 16.278 45.6811 26.3951 45.6811 26.3951H10.369C10.369 26.3951 12.7723 16.2812 13.1125 15.3362ZM13.9724 40.7927H7.03029L4.71836 38.3894V33.3309L13.9755 35.9893V40.7927H13.9724ZM37.3689 50.3901H18.6844V45.5929H37.3689V50.3901ZM51.3381 38.3926L49.0262 40.7958H41.9959V35.9987L51.3381 33.3403V38.3926Z" fill="#005484"/>
</svg>
