<svg width="28" height="25" viewBox="0 0 28 25" fill="none" xmlns="http://www.w3.org/2000/svg">
<path d="M12.4986 18.0549L19.4422 12.5L12.4986 6.94507V11.1113H0V13.8887H12.4986V18.0549Z" fill="#005484"/>
<path d="M15.2773 4.77184e-05C13.6352 -0.00450551 12.0085 0.316832 10.4914 0.945446C8.97436 1.57406 7.59711 2.49745 6.43945 3.66213L8.40312 5.6258C10.239 3.7899 12.6804 2.77751 15.2773 2.77751C17.8743 2.77751 20.3157 3.7899 22.1516 5.6258C23.9875 7.46171 24.9999 9.9031 24.9999 12.5C24.9999 15.097 23.9875 17.5383 22.1516 19.3743C20.3157 21.2102 17.8743 22.2225 15.2773 22.2225C12.6804 22.2225 10.239 21.2102 8.40312 19.3743L6.43945 21.3379C8.79891 23.6988 11.9374 25 15.2773 25C18.6172 25 21.7558 23.6988 24.1152 21.3379C26.4761 18.9785 27.7773 15.8399 27.7773 12.5C27.7773 9.16013 26.4761 6.02159 24.1152 3.66213C22.9576 2.49745 21.5803 1.57406 20.0633 0.945446C18.5462 0.316832 16.9195 -0.00450551 15.2773 4.77184e-05Z" fill="#005484"/>
</svg>
